<svg xmlns="http://www.w3.org/2000/svg" viewBox="0 0 512 512"><defs><linearGradient id="g" x2="1" y2="1"><stop stop-color="#8b5cf6"/><stop offset="1" stop-color="#e45ba4"/></linearGradient></defs><rect width="512" height="512" rx="118" fill="#0b0b0e"/><rect x="76" y="76" width="360" height="360" rx="100" fill="url(#g)"/><path d="M322 176c-18-14-43-23-70-23-51 0-91 28-91 73 0 40 30 57 76 68 29 7 42 13 42 27 0 13-13 21-33 21-26 0-52-12-71-31l-35 42c27 28 65 42 105 42 57 0 99-29 99-80 0-42-27-60-78-73-27-7-39-12-39-24 0-11 11-19 28-19 21 0 42 8 59 22z" fill="white"/></svg>
